<mxfile host="app.diagrams.net" modified="2021-08-18T15:50:12.704Z" agent="5.0 (Windows NT 10.0; Win64; x64) AppleWebKit/537.36 (KHTML, like Gecko) Chrome/92.0.4515.131 Safari/537.36" etag="iRjGfPbk5tvsLcMEblzl" version="14.9.6" type="github">
  <diagram id="fQWwzDUrFH1u1bidVbNE" name="Page-1">
    <mxGraphModel dx="1108" dy="484" grid="1" gridSize="10" guides="1" tooltips="1" connect="1" arrows="1" fold="1" page="1" pageScale="1" pageWidth="827" pageHeight="1169" math="0" shadow="0">
      <root>
        <mxCell id="0" />
        <mxCell id="1" parent="0" />
        <mxCell id="wZnrccts35dA2xqpB4YH-17" style="edgeStyle=orthogonalEdgeStyle;rounded=0;orthogonalLoop=1;jettySize=auto;html=1;exitX=0.5;exitY=1;exitDx=0;exitDy=0;entryX=0.5;entryY=0;entryDx=0;entryDy=0;" edge="1" parent="1" source="wZnrccts35dA2xqpB4YH-3" target="wZnrccts35dA2xqpB4YH-5">
          <mxGeometry relative="1" as="geometry" />
        </mxCell>
        <mxCell id="wZnrccts35dA2xqpB4YH-3" value="&lt;h2&gt;Bắt đầu&lt;/h2&gt;" style="rounded=1;whiteSpace=wrap;html=1;" vertex="1" parent="1">
          <mxGeometry x="85" y="20" width="120" height="60" as="geometry" />
        </mxCell>
        <mxCell id="wZnrccts35dA2xqpB4YH-13" value="Khởi động động cơ BLDC" style="swimlane;" vertex="1" parent="1">
          <mxGeometry x="60" y="140" width="290" height="270" as="geometry" />
        </mxCell>
        <mxCell id="wZnrccts35dA2xqpB4YH-19" style="edgeStyle=orthogonalEdgeStyle;rounded=0;orthogonalLoop=1;jettySize=auto;html=1;exitX=0.5;exitY=1;exitDx=0;exitDy=0;entryX=0.5;entryY=0;entryDx=0;entryDy=0;" edge="1" parent="wZnrccts35dA2xqpB4YH-13" source="wZnrccts35dA2xqpB4YH-5" target="wZnrccts35dA2xqpB4YH-14">
          <mxGeometry relative="1" as="geometry" />
        </mxCell>
        <mxCell id="wZnrccts35dA2xqpB4YH-5" value="&lt;h3&gt;Tăng chu kỳ PWM theo thời gian&lt;/h3&gt;" style="rounded=1;whiteSpace=wrap;html=1;" vertex="1" parent="wZnrccts35dA2xqpB4YH-13">
          <mxGeometry x="20" y="50" width="130" height="60" as="geometry" />
        </mxCell>
        <mxCell id="wZnrccts35dA2xqpB4YH-14" value="&lt;h3&gt;Nếu tốc độ &amp;gt; 500rmp&lt;/h3&gt;" style="rhombus;whiteSpace=wrap;html=1;" vertex="1" parent="wZnrccts35dA2xqpB4YH-13">
          <mxGeometry x="32.5" y="150" width="105" height="100" as="geometry" />
        </mxCell>
        <mxCell id="wZnrccts35dA2xqpB4YH-18" value="No" style="edgeStyle=orthogonalEdgeStyle;rounded=0;orthogonalLoop=1;jettySize=auto;html=1;exitX=1;exitY=0.5;exitDx=0;exitDy=0;" edge="1" parent="1" source="wZnrccts35dA2xqpB4YH-14">
          <mxGeometry x="-0.9318" y="10" relative="1" as="geometry">
            <mxPoint x="145" y="170" as="targetPoint" />
            <Array as="points">
              <mxPoint x="310" y="340" />
              <mxPoint x="310" y="170" />
            </Array>
            <mxPoint as="offset" />
          </mxGeometry>
        </mxCell>
        <mxCell id="wZnrccts35dA2xqpB4YH-21" value="Đọc tốc độ BLDC" style="swimlane;" vertex="1" parent="1">
          <mxGeometry x="60" y="460" width="350" height="380" as="geometry" />
        </mxCell>
        <mxCell id="wZnrccts35dA2xqpB4YH-23" value="&lt;h3&gt;t0... BEMFA&lt;/h3&gt;" style="rounded=1;whiteSpace=wrap;html=1;" vertex="1" parent="wZnrccts35dA2xqpB4YH-21">
          <mxGeometry x="32.5" y="40" width="130" height="60" as="geometry" />
        </mxCell>
        <mxCell id="wZnrccts35dA2xqpB4YH-24" value="&lt;h3&gt;t1... BEMFA&lt;/h3&gt;" style="rounded=1;whiteSpace=wrap;html=1;" vertex="1" parent="wZnrccts35dA2xqpB4YH-21">
          <mxGeometry x="32.5" y="150" width="130" height="60" as="geometry" />
        </mxCell>
      </root>
    </mxGraphModel>
  </diagram>
</mxfile>
